<?xml version="1.0" encoding="UTF-8" standalone="no"?>
<svg
   width="30mm"
   height="30mm"
   viewBox="0 0 30 30"
   version="1.1"
   id="svg190"
   sodipodi:docname="effie-logo3b-new-pink_C.svg"
   inkscape:export-filename="effie-logo3b-new-pink.png"
   inkscape:export-xdpi="300"
   inkscape:export-ydpi="300"
   inkscape:version="1.2.1 (9c6d41e, 2022-07-14)"
   xmlns:inkscape="http://www.inkscape.org/namespaces/inkscape"
   xmlns:sodipodi="http://sodipodi.sourceforge.net/DTD/sodipodi-0.dtd"
   xmlns="http://www.w3.org/2000/svg"
   xmlns:svg="http://www.w3.org/2000/svg">
  <defs
     id="defs194" />
  <sodipodi:namedview
     id="namedview192"
     pagecolor="#ffffff"
     bordercolor="#000000"
     borderopacity="0.25"
     inkscape:showpageshadow="2"
     inkscape:pageopacity="0.0"
     inkscape:pagecheckerboard="0"
     inkscape:deskcolor="#d1d1d1"
     inkscape:document-units="mm"
     showgrid="false"
     inkscape:zoom="2.0813889"
     inkscape:cx="113.1456"
     inkscape:cy="51.888429"
     inkscape:window-width="1309"
     inkscape:window-height="614"
     inkscape:window-x="0"
     inkscape:window-y="38"
     inkscape:window-maximized="0"
     inkscape:current-layer="svg190" />
  <path
     d="m 25.500413,12.577476 c -7.093,-8.3849997 -23.0710005,-13.47999971 -22.6840005,0.883 0.349,12.899 11.6150005,13.906 18.7060005,10.348 0.925,-0.464 5.642,1.743 5.642,1.743 0,0 -1.879,-4.458 -1.404,-5.07 1.79,-2.315 2.11,-5.147 -0.26,-7.906"
     style="fill:#9145ff;fill-opacity:1;stroke-width:0.320852"
     id="path182" />
  <path
     d="m 12.862,22.484 a 6,6 0 0 1 -1.103,-0.3 C 10.977,21.858 9.235,20.355 6.609,17.743 4.702,15.846 4.06,15.127 3.997,14.819 3.82,13.968 4.129,13.453 6.131,11.261 7.174,10.118 8.335,8.946 8.711,8.655 c 2.74,-2.12 4.435,-1.656 7.696,2.109 1.612,1.86 2.491,3.132 2.39,3.454 -0.205,0.641 -3.225,3.608 -3.958,3.886 -0.388,0.148 -1.109,-0.082 -1.612,-0.515 -0.199,-0.171 -1.106,-1.073 -2.016,-2.005 L 9.555,13.89 9.954,13.387 c 0.219,-0.277 0.605,-0.661 0.86,-0.855 0.433,-0.331 0.474,-0.34 0.698,-0.137 0.13,0.119 0.541,0.793 0.912,1.498 0.371,0.706 0.818,1.396 0.993,1.534 0.663,0.52 1.478,0.212 1.82,-0.69 0.226,-0.599 0.166,-1.748 -0.125,-2.348 -0.356,-0.735 -1.455,-1.744 -2.443,-2.243 -0.688,-0.348 -0.907,-0.4 -1.392,-0.333 -1.16,0.159 -2.393,1.232 -3.26,2.835 -0.368,0.683 -0.42,0.9 -0.422,1.753 -0.002,0.893 0.045,1.067 0.565,2.117 0.753,1.521 2.086,2.886 3.5,3.585 1.701,0.84 2.915,0.762 5.011,-0.325 1.452,-0.754 2.484,-1.68 3.85,-3.458 0.67,-0.872 1.5,-1.93 1.844,-2.348 l 0.626,-0.762 0.553,0.543 c 0.304,0.298 0.581,0.65 0.616,0.783 0.098,0.374 -0.752,1.545 -2.506,3.454 -3.612,3.93 -5.723,5.008 -8.792,4.494"
     style="fill:#ffffff;stroke:none;stroke-width:0"
     id="path184" />
</svg>
